<?xml version="1.0" encoding="UTF-8"?>
<svg id="Layer_1" data-name="Layer 1" xmlns="http://www.w3.org/2000/svg" viewBox="0 0 143.83 114.17">
  <defs>
    <style>
      .cls-1, .cls-2 {
        fill: #dde6ed;
        stroke: #dde6ed;
        stroke-miterlimit: 10;
        stroke-width: .5px;
      }

      .cls-2 {
        opacity: .2;
      }
    </style>
  </defs>
  <path class="cls-2" d="M143.47,68.68c-1.05-2.23-2.32-4.4-3.77-6.44-7.75-10.91-19.42-17.72-32.02-18.71-7.2-.56-14.85,1.26-19.21,2.99-10.55,4.2-15.63,9.62-23.61,25.21-1.59,3.11-4,7.8-6.42,10.36-1.36,1.43-2.85,2.7-4.44,3.83-9.77-4.27-16.06-13.82-16.06-24.52,0-6.97,2.62-13.48,7.4-18.48,9.17,10.51,21.05,14.18,21.58,14.34.02,0,.04.01.07.02h0s0,0,0,0c0,0,0,0,0,0,.09.02.18.03.27.03h0c.1,0,.2-.02.3-.04,0,0,0,0,0,0,0,0,0,0,0,0,0,0,0,0,0,0,0,0,0,0,.01,0,.73-.22,25.77-7.93,31.15-33.58.01-.03.03-.05.04-.09.13-.49,3.22-12.06-.65-22.56-.21-.57-.82-.89-1.41-.73-7.93,2.19-14.13,7.75-16.99,10.71-7.27-3.46-15.06-5.23-23.18-5.23-2.39,0-4.8.16-7.16.48-3.11-2.35-7.07-4.71-11.61-5.96-.58-.16-1.2.15-1.41.73-1.17,3.17-1.69,6.43-1.87,9.45C15.02,19.18,2.48,38.48,2.48,59.85c0,29.82,24.26,54.07,54.07,54.07,4.93,0,9.79-.66,14.46-1.96.57-.15,1.13-.32,1.69-.49,9.23-2.89,17.51-8.25,23.97-15.4,7.48-.76,14.92.73,21.55,4.37,2.61,1.43,5.03,3.16,7.2,5.15.37.33.72.67,1.08,1.02.22.22.52.34.83.34.13,0,.25-.02.37-.06.42-.14.73-.51.79-.95.33-2.46.44-4.97.34-7.46-.09-2.03-.32-4.06-.69-6.07,1.61.69,3.16,1.48,4.64,2.39.43.25.84.52,1.25.8.2.13.43.2.66.2.2,0,.4-.05.58-.15.39-.22.62-.64.59-1.09-.14-2.48-.51-4.96-1.09-7.38-.47-1.97-1.09-3.92-1.84-5.83,1.71.37,3.38.85,5.01,1.46.47.17.92.35,1.38.54.41.17.89.1,1.22-.19.34-.29.48-.75.37-1.18-.61-2.4-1.45-4.77-2.48-7.04-.84-1.85-1.82-3.65-2.91-5.37,1.75.04,3.48.19,5.19.48.49.08.97.17,1.45.27.44.09.89-.07,1.17-.42.28-.35.33-.83.14-1.23ZM38.36,24.54c15.16,2.69,24.23,22.74,26.93,29.64-6.05-2.42-22.27-10.58-26.93-29.64ZM67.25,52.73c-1.2-3.03-3.39-7.96-6.59-13.02-6.05-9.57-13.18-15.48-20.77-17.25,4.61-3.01,15.48-9.14,27.36-9.14s22.74,6.14,27.35,9.14c-7.59,1.77-14.72,7.68-20.77,17.25-3.2,5.06-5.38,9.99-6.58,13.02ZM69.22,54.17c2.69-6.9,11.76-26.95,26.93-29.63-4.65,19.03-20.88,27.2-26.93,29.63ZM96.29,2.87c2.29,7.18,1.27,14.89.62,18.29-2.62-1.81-8.54-5.52-16.06-7.93,2.25-2.41,8.03-7.97,15.43-10.36ZM56.55,8.12c6.79,0,13.35,1.3,19.53,3.83-2.81-.61-5.78-.98-8.83-.98-3.88,0-7.63.61-11.1,1.53-.62-.72-2.07-2.3-4.18-4.15,1.52-.13,3.05-.23,4.58-.23ZM38.21,2.87c7.39,2.39,13.18,7.96,15.43,10.36-7.52,2.41-13.43,6.12-16.06,7.93-.65-3.41-1.67-11.11.62-18.29ZM34.43,13.11c.04,5.77,1.21,10.18,1.29,10.47,0,.03.03.05.04.08.39,1.88.9,3.65,1.49,5.35-.2,0-.39-.02-.59-.02-15.17,0-27.95,10.49-31.45,24.59,2.12-17.52,13.09-32.84,29.23-40.48ZM36.65,31.34c.5,0,1,.03,1.5.05,1.54,3.7,3.5,6.92,5.68,9.71-5.32,5.46-8.24,12.63-8.24,20.3,0,11.13,6.23,21.12,16.06,26.04-4.54,2.63-9.68,4.01-15,4.01-16.57,0-30.05-13.48-30.05-30.05s13.48-30.06,30.05-30.06ZM126.49,98.58c.07,1.58.04,3.17-.08,4.74-2.14-1.89-4.51-3.54-7.05-4.94-6.34-3.48-13.38-5.12-20.53-4.82.46-.57.9-1.15,1.33-1.75,0,0,0,0,.01,0,7.94-3.05,16.42-3.29,24.56-.7.27.09.53.19.8.28.53,2.36.86,4.77.96,7.18ZM132.48,87.72c.37,1.53.64,3.1.83,4.67-2.45-1.44-5.09-2.61-7.87-3.5-7.54-2.41-15.68-2.48-23.22-.24.12-.2.22-.41.34-.61,7.68-5.84,17.17-8.43,26.77-7.3.28.03.56.08.84.12.97,2.22,1.75,4.52,2.31,6.87ZM138,80.33c-2.69-.95-5.51-1.6-8.39-1.94-8.22-.97-16.36.63-23.48,4.53,6.41-7.73,15.62-12.52,25.74-13.27.28-.02.57-.02.85-.04,1.37,1.99,2.58,4.1,3.58,6.3.65,1.44,1.22,2.92,1.7,4.42ZM131.69,67.31c-11.92.88-22.66,7.03-29.47,16.86-.56.8-1.07,1.62-1.56,2.46-.02.04-.04.07-.06.11-.35.59-.69,1.18-1,1.78-6.55,9.84-16.35,17.2-27.6,20.72-.53.16-1.06.32-1.61.47-4.47,1.25-9.13,1.88-13.84,1.88-23.65,0-43.64-15.95-49.78-37.67,4.91,11.67,16.46,19.88,29.89,19.88,6.5,0,12.76-1.92,18.12-5.54,0,0,0,0,0,0,0,0,0,0,0,0,1.93-1.3,3.73-2.83,5.36-4.53,2.66-2.8,5.16-7.68,6.81-10.91,7.67-14.98,12.48-20.16,22.39-24.1,4.12-1.64,11.35-3.37,18.16-2.83,11.9.93,22.95,7.39,30.29,17.72.92,1.29,1.76,2.64,2.51,4.02-2.82-.42-5.72-.52-8.6-.31Z"/>
  <path class="cls-1" d="M141.24,68.68c-1.05-2.23-2.32-4.4-3.77-6.44-7.75-10.91-19.42-17.72-32.02-18.71-7.2-.56-14.85,1.26-19.21,2.99-10.55,4.2-15.63,9.62-23.61,25.21-1.59,3.11-3.99,7.8-6.42,10.36-1.35,1.43-2.85,2.7-4.44,3.83-9.77-4.27-16.06-13.82-16.06-24.52,0-6.97,2.62-13.48,7.4-18.48,9.17,10.51,21.05,14.18,21.58,14.34.02,0,.04.01.07.02h0s0,0,0,0c0,0,0,0,0,0,.09.02.18.03.26.03h0c.1,0,.2-.02.3-.04,0,0,0,0,0,0,0,0,0,0,0,0,0,0,0,0,0,0,0,0,0,0,.01,0,.73-.22,25.77-7.93,31.15-33.58.01-.03.03-.05.04-.09.13-.49,3.22-12.06-.65-22.56-.21-.57-.82-.89-1.41-.73-7.93,2.19-14.13,7.75-16.99,10.71-7.27-3.46-15.06-5.23-23.18-5.23-2.39,0-4.8.16-7.16.48-3.11-2.35-7.07-4.71-11.61-5.96-.58-.16-1.2.15-1.41.73-1.17,3.17-1.69,6.43-1.87,9.45C12.8,19.18.25,38.48.25,59.85c0,29.82,24.26,54.07,54.07,54.07,4.93,0,9.79-.66,14.46-1.96.57-.15,1.13-.32,1.69-.49,9.23-2.89,17.51-8.25,23.97-15.4,7.48-.76,14.92.73,21.55,4.37,2.61,1.43,5.03,3.16,7.19,5.15.37.33.73.67,1.08,1.02.22.22.52.34.83.34.12,0,.25-.02.37-.06.42-.14.73-.51.79-.95.33-2.46.45-4.97.34-7.46-.09-2.03-.32-4.06-.7-6.07,1.61.69,3.16,1.48,4.64,2.39.43.25.84.52,1.25.8.2.13.43.2.66.2.2,0,.4-.05.58-.15.39-.22.62-.64.59-1.09-.14-2.48-.51-4.96-1.09-7.38-.47-1.97-1.09-3.92-1.84-5.83,1.71.37,3.38.85,5.01,1.46.46.17.92.35,1.38.54.41.17.89.1,1.22-.19.34-.29.48-.75.37-1.18-.61-2.4-1.44-4.77-2.48-7.04-.84-1.85-1.82-3.65-2.92-5.37,1.75.04,3.48.19,5.19.48.49.08.97.17,1.46.27.44.09.89-.07,1.17-.42.28-.35.33-.83.14-1.23ZM36.13,24.54c15.16,2.69,24.23,22.74,26.93,29.64-6.04-2.42-22.27-10.58-26.93-29.64ZM65.02,52.73c-1.2-3.03-3.39-7.96-6.59-13.02-6.05-9.57-13.18-15.48-20.77-17.25,4.61-3.01,15.48-9.14,27.36-9.14s22.74,6.14,27.35,9.14c-7.59,1.77-14.72,7.68-20.77,17.25-3.2,5.06-5.38,9.99-6.59,13.02ZM66.99,54.17c2.69-6.9,11.76-26.95,26.93-29.63-4.65,19.03-20.88,27.2-26.93,29.63ZM94.06,2.87c2.29,7.18,1.27,14.89.62,18.29-2.62-1.81-8.54-5.52-16.06-7.93,2.25-2.41,8.03-7.97,15.43-10.36ZM54.32,8.12c6.8,0,13.35,1.3,19.53,3.83-2.82-.61-5.78-.98-8.83-.98-3.88,0-7.63.61-11.1,1.53-.62-.72-2.07-2.3-4.18-4.15,1.52-.13,3.05-.23,4.58-.23ZM35.98,2.87c7.4,2.39,13.18,7.96,15.43,10.36-7.52,2.41-13.43,6.12-16.06,7.93-.65-3.41-1.67-11.11.62-18.29ZM32.2,13.11c.04,5.77,1.21,10.18,1.29,10.47,0,.03.03.05.04.08.39,1.88.9,3.65,1.49,5.35-.2,0-.39-.02-.59-.02-15.18,0-27.95,10.49-31.45,24.59,2.13-17.52,13.09-32.84,29.23-40.48ZM34.43,31.34c.5,0,1,.03,1.5.05,1.54,3.7,3.5,6.92,5.68,9.71-5.32,5.46-8.24,12.63-8.24,20.3,0,11.13,6.23,21.12,16.06,26.04-4.54,2.63-9.68,4.01-14.99,4.01-16.57,0-30.05-13.48-30.05-30.05s13.48-30.06,30.05-30.06ZM124.26,98.58c.07,1.58.04,3.17-.08,4.74-2.14-1.89-4.51-3.54-7.05-4.94-6.34-3.48-13.39-5.12-20.53-4.82.46-.57.9-1.15,1.33-1.75,0,0,0,0,.01,0,7.94-3.05,16.42-3.29,24.56-.7.27.09.53.19.8.28.53,2.36.86,4.77.96,7.18ZM130.25,87.72c.37,1.53.64,3.1.83,4.67-2.45-1.44-5.09-2.61-7.86-3.5-7.54-2.41-15.68-2.48-23.22-.24.11-.2.22-.41.34-.61,7.68-5.84,17.17-8.43,26.77-7.3.28.03.56.08.84.12.97,2.22,1.75,4.52,2.31,6.87ZM135.77,80.33c-2.69-.95-5.51-1.6-8.39-1.94-8.22-.97-16.36.63-23.48,4.53,6.41-7.73,15.62-12.52,25.74-13.27.28-.02.57-.02.85-.04,1.37,1.99,2.58,4.1,3.58,6.3.65,1.44,1.22,2.92,1.7,4.42ZM129.47,67.31c-11.92.88-22.66,7.03-29.47,16.86-.56.8-1.07,1.62-1.56,2.46-.02.04-.04.07-.06.11-.34.59-.69,1.18-1,1.78-6.55,9.84-16.35,17.2-27.6,20.72-.53.16-1.06.32-1.61.47-4.47,1.25-9.13,1.88-13.84,1.88-23.65,0-43.64-15.95-49.78-37.67,4.91,11.67,16.46,19.88,29.89,19.88,6.5,0,12.76-1.92,18.12-5.54,0,0,0,0,0,0,0,0,0,0,0,0,1.93-1.3,3.73-2.83,5.36-4.53,2.66-2.8,5.16-7.68,6.81-10.91,7.67-14.98,12.48-20.16,22.39-24.1,4.12-1.64,11.35-3.37,18.16-2.83,11.9.93,22.94,7.39,30.29,17.72.92,1.29,1.76,2.64,2.51,4.02-2.82-.42-5.72-.52-8.61-.31Z"/>
</svg>